<?xml version="1.0" standalone="no"?>
<!DOCTYPE svg PUBLIC "-//W3C//DTD SVG 20010904//EN"
 "http://www.w3.org/TR/2001/REC-SVG-20010904/DTD/svg10.dtd">
<svg version="1.0" xmlns="http://www.w3.org/2000/svg"
 width="280.000000pt" height="280.000000pt" viewBox="0 0 280.000000 280.000000"
 preserveAspectRatio="xMidYMid meet">
<metadata>
Created by potrace 1.11, written by Peter Selinger 2001-2013
</metadata>
<g transform="translate(0.000000,280.000000) scale(0.100000,-0.100000)"
fill="#000000" stroke="none">
<path d="M1195 2785 c-324 -53 -580 -187 -808 -424 -186 -194 -300 -411 -359
-684 -31 -146 -31 -408 0 -554 59 -274 173 -490 361 -685 208 -217 439 -346
734 -410 146 -31 408 -31 554 0 295 64 526 193 734 410 188 195 302 411 361
685 31 146 31 408 0 554 -64 295 -193 526 -410 734 -194 187 -413 303 -680
359 -129 28 -363 35 -487 15z"/>
</g>
</svg>
